<svg version="1.1" xmlns="http://www.w3.org/2000/svg" xmlns:xlink="http://www.w3.org/1999/xlink" width="48px" height="48px" viewBox="0,0,256,256"><g fill="none" fill-rule="nonzero" stroke="none" stroke-width="1" stroke-linecap="butt" stroke-linejoin="miter" stroke-miterlimit="10" stroke-dasharray="" stroke-dashoffset="0" font-family="none" font-weight="none" font-size="none" text-anchor="none" style="mix-blend-mode: normal"><g transform="scale(5.33333,5.33333)"><path d="M24,11c2.758,0 5,-2.242 5,-5c0,-2.758 -2.242,-5 -5,-5c-2.758,0 -5,2.242 -5,5c0,2.758 2.242,5 5,5" fill="#ffb74d"></path><path d="M33,22c0,2.485 0,9 0,9l-3,2l-1,14h-10l-1,-14l-3,-2c0,0 0,-4.029 0,-9c0,-4.971 4.029,-9 9,-9c4.971,0 9,4.029 9,9z" fill="#20495c"></path></g></g></svg>